<svg width="164" height="161" viewBox="0 0 164 161" fill="none" xmlns="http://www.w3.org/2000/svg">
<path d="M104.074 4.79161C114.794 8.62996 116.636 22.4618 110.784 31.0838C104.254 40.7074 92.3529 43.9101 81.3163 44.0485C76.146 44.1162 69.7629 44.2976 65.0881 41.7717C59.7861 38.9078 60.3844 32.9681 64.8797 29.6463C74.1371 22.8073 87.0809 34.5128 92.8408 41.016C100.21 49.3378 104.466 60.7241 100.981 71.7055C97.4697 82.7707 86.561 87.9513 75.4997 87.4264C70.4391 87.187 61.8984 85.9958 60.1547 80.2711C59.4457 77.9435 60.1076 75.1042 62.7291 74.393C65.0978 73.7498 67.801 75.3319 69.6776 76.6061C73.6418 79.2982 76.9177 83.2977 80.048 86.8812C83.5091 90.8419 86.7278 95.0404 89.2515 99.6677C94.9434 110.108 95.3376 122.361 86.7093 131.413C77.4906 141.085 63.4949 142.649 50.9514 140.308L51.7861 143.6C56.1378 139.691 60.4897 135.782 64.8417 131.874L62.0399 129.022C57.4196 133.993 52.3883 138.566 46.9996 142.693C45.9945 143.463 46.3172 145.321 47.38 145.855L64.696 154.588C66.999 155.75 69.0809 152.29 66.7572 151.121L49.4326 142.399L49.8134 145.561C55.2054 141.436 60.2335 136.857 64.8421 131.874C66.5869 129.985 63.9616 127.284 62.0403 129.023L49.0331 140.799C47.999 141.736 48.4109 143.826 49.8674 144.092C63.7449 146.629 79.1916 144.854 89.3898 134.144C98.6469 124.424 99.2331 111.159 93.4698 99.5157C90.4098 93.3361 86.0462 87.8277 81.4447 82.7291C77.4557 78.3092 73.1497 73.1608 67.3353 71.1452C62.5062 69.4732 57.0595 71.5819 56.2099 77.0138C55.2596 83.0895 60.0947 87.4565 65.342 89.33C77.5506 93.6891 93.4422 90.905 101.132 79.8038C109.043 68.3925 106.396 53.1202 98.7177 42.4265C92.2721 33.4415 78.025 19.8758 65.6412 24.9359C61.0443 26.814 57.0963 31.4767 57.4065 36.6442C57.7739 42.8018 63.6921 45.9114 69.1006 46.9197C83.6279 49.6286 102.292 47.3747 111.965 34.9947C116.073 29.7361 118.102 22.9606 116.394 16.4063C114.805 10.3108 110.549 5.34885 104.443 3.51617C103.616 3.26783 103.277 4.50812 104.076 4.79374L104.074 4.79161Z" fill="#FF5D24"/>
</svg>
