<svg width="17" height="20" viewBox="0 0 17 20" fill="none" xmlns="http://www.w3.org/2000/svg">
<path d="M16.6667 10.0115C16.6667 10.6138 16.4795 11.2185 16.1053 11.7027C16.0351 11.7977 15.7077 12.1892 15.4504 12.444L15.31 12.583C13.3453 14.6936 8.45672 17.8675 5.97737 18.8845C5.97737 18.9077 4.50379 19.5124 3.80208 19.5332H3.70852C2.63258 19.5332 1.6268 18.9332 1.11222 17.9602C0.831535 17.425 0.574243 15.8728 0.550853 15.8519C0.340342 14.4596 0.200001 12.3282 0.200001 9.9883C0.200001 7.53489 0.340342 5.30851 0.597633 3.94164C0.597633 3.91848 0.854925 2.66744 1.01866 2.25043C1.27595 1.6504 1.74375 1.1384 2.3285 0.814062C2.79631 0.584706 3.2875 0.466553 3.80208 0.466553C4.34006 0.492037 5.34583 0.837229 5.74347 0.9994C8.36316 2.01876 13.3687 5.35485 15.2866 7.39357C15.6141 7.71791 15.965 8.11407 16.0585 8.20442C16.4562 8.7141 16.6667 9.33962 16.6667 10.0115Z" fill="white"/>
</svg>
