<?xml version="1.0" ?><svg baseProfile="tiny" id="Layer_1" version="1.2" viewBox="0 0 512 512" xml:space="preserve" xmlns="http://www.w3.org/2000/svg" xmlns:xlink="http://www.w3.org/1999/xlink"><g id="XMLID_1147_"><rect fill="#F68E1C" height="19.1" id="XMLID_335_" width="227.1" x="120.3" y="158.6"/><rect fill="#F68E1C" height="19.1" id="XMLID_334_" width="227.1" x="120.3" y="189.6"/><rect fill="#F68E1C" height="19.1" id="XMLID_333_" width="227.1" x="120.3" y="220.7"/><rect fill="#F68E1C" height="19.1" id="XMLID_332_" width="227.1" x="120.3" y="251.7"/><rect fill="#F68E1C" height="19.1" id="XMLID_331_" width="176.5" x="120.3" y="282.7"/><path d="M456.1,75.1L397.6,7.3c-1.8-1.8-4.9-1.8-6.7,0l-58.5,67.8c-2.6,2.6-0.6,6.7,3.3,6.7h27.4   V135h62.1V81.8h27.4C456.7,81.8,458.7,77.7,456.1,75.1z" fill="#F68E1C" id="XMLID_330_"/><rect fill="#F68E1C" height="24.2" id="XMLID_329_" width="62.1" x="363.2" y="144.6"/><path d="M363.2,187.3c0,2.2,2,4,4.5,4h53.1c2.5,0,4.5-1.8,4.5-4v-8.9h-62.1V187.3z" fill="#F68E1C" id="XMLID_328_"/><path d="M386.7,464.2c0,15.8-12.8,28.6-28.6,28.6H109.5c-15.8,0-28.6-12.8-28.6-28.6v-8.8H67.7V469   c0,20.5,16.6,37,37,37h258.1c20.5,0,37-16.6,37-37V200.4h-13.2V464.2z" fill="#F68E1C" id="XMLID_327_"/><path d="M80.9,110.3c0-15.8,12.8-28.6,28.6-28.6h213.2c-1.4-4.4-0.3-9.3,3-12.7l0.4-0.4H104.8   c-20.5,0-37,16.6-37,37V333h13.2V110.3z" fill="#F68E1C" id="XMLID_326_"/><path d="M345.4,394.3L345.4,394.3c0-28.7-23.3-52.1-52.1-52.1H54.7v104.1h238.7   C322.1,446.3,345.4,423,345.4,394.3z M164.1,417.8c-3.5,2.6-8,4-13.7,4c-5.4,0-10.2-1.4-14.2-4.3c-4-2.9-6-7-5.9-12.2l0.1-0.2h8.6   c0,3.2,1.1,5.6,3.3,7.3c2.2,1.6,4.9,2.4,8.1,2.4c3.2,0,5.6-0.7,7.4-2c1.7-1.3,2.6-3.1,2.6-5.4c0-2.2-0.8-4.1-2.4-5.5   c-1.6-1.4-4.4-2.7-8.4-3.8c-5.8-1.6-10.2-3.7-13.3-6.3c-3.1-2.6-4.7-6-4.7-10.1c0-4.3,1.7-7.9,5.1-10.6c3.4-2.8,7.8-4.2,13.2-4.2   c5.8,0,10.4,1.5,13.9,4.6c3.5,3.1,5.1,6.9,5,11.5l-0.1,0.2h-8.6c0-2.8-0.9-5.1-2.8-6.7c-1.9-1.7-4.4-2.5-7.5-2.5   c-3,0-5.3,0.7-7,2.1c-1.6,1.4-2.4,3.3-2.4,5.5c0,2.1,0.9,3.8,2.7,5.1c1.8,1.3,4.7,2.6,8.9,3.8c5.6,1.6,9.9,3.7,12.8,6.4   c2.9,2.7,4.4,6.2,4.4,10.4C169.3,411.6,167.6,415.1,164.1,417.8z M203.2,421h-8.5l-19.1-53.5h9.5l12.7,39l1,3.9h0.2l0.9-3.8   l12.8-39h9.5L203.2,421z M269.8,413.8c-1.5,2.1-3.8,3.9-7,5.6c-3.2,1.6-7.4,2.4-12.5,2.4c-6.3,0-11.5-2-15.6-6.1   c-4.1-4.1-6.1-9.3-6.1-15.8v-11.2c0-6.5,2-11.7,5.9-15.8c3.9-4.1,9-6.1,15.2-6.1c6.2,0,11.1,1.6,14.5,4.7c3.5,3.1,5.2,7.2,5.1,12.3   l-0.1,0.2h-8.5c0-3-0.9-5.4-2.8-7.3s-4.6-2.8-8.1-2.8c-3.7,0-6.7,1.4-8.9,4.1c-2.3,2.8-3.4,6.3-3.4,10.5v11.2   c0,4.3,1.2,7.9,3.5,10.6c2.4,2.8,5.4,4.2,9.2,4.2c2.9,0,5.1-0.3,6.8-1c1.7-0.6,2.9-1.4,3.8-2.4v-11.1h-11.2v-6.7h20.1V413.8z" fill="#F68E1C" id="XMLID_1148_"/></g></svg>